<svg id="logo" xmlns="http://www.w3.org/2000/svg" width="119.26" height="14.58" viewBox="0 0 119.26 14.58">
  <path id="Logo-2" data-name="Logo" d="M1.28,14.54a1.271,1.271,0,0,1-.94-.36A1.313,1.313,0,0,1,0,13.24V1.54A1.217,1.217,0,0,1,.32.64,1.288,1.288,0,0,1,1.24.32H8.26q1.22,0,1.22,1.04,0,1.02-1.22,1.02H2.54V6.22H7.86q1.22,0,1.22,1.04,0,1.02-1.22,1.02H2.54v4.96a1.313,1.313,0,0,1-.34.94A1.205,1.205,0,0,1,1.28,14.54Z" fill="#0056d6"/>
  <path id="Logo-3" data-name="Logo" d="M16.373,4.44a1.077,1.077,0,0,1,.82.22.976.976,0,0,1,.3.78,1.09,1.09,0,0,1-.26.8,1.6,1.6,0,0,1-.94.34l-.6.06a2.468,2.468,0,0,0-1.74.8,2.648,2.648,0,0,0-.54,1.7v4.2a1.141,1.141,0,0,1-.36.9,1.5,1.5,0,0,1-1.8,0,1.176,1.176,0,0,1-.34-.9V5.6a1.086,1.086,0,0,1,.34-.86,1.329,1.329,0,0,1,.88-.3,1.178,1.178,0,0,1,.84.3,1.031,1.031,0,0,1,.32.82v.8A2.981,2.981,0,0,1,14.413,5a3.525,3.525,0,0,1,1.68-.54Z" fill="#0056d6"/>
  <path id="Logo-4" data-name="Logo" d="M26.114,11.74a.646.646,0,0,1,.54.26,1.048,1.048,0,0,1,.22.7,1.213,1.213,0,0,1-.74,1.04,7.008,7.008,0,0,1-1.54.62,6.619,6.619,0,0,1-1.64.22,5.1,5.1,0,0,1-3.74-1.36,4.985,4.985,0,0,1-1.38-3.72,5.707,5.707,0,0,1,.6-2.66,4.383,4.383,0,0,1,1.68-1.8,4.84,4.84,0,0,1,2.48-.64,4.432,4.432,0,0,1,2.3.58,3.933,3.933,0,0,1,1.52,1.64,5.442,5.442,0,0,1,.54,2.5q0,.86-.76.86h-5.9a3.192,3.192,0,0,0,.78,2.04,2.65,2.65,0,0,0,1.92.64,3.546,3.546,0,0,0,1.12-.16,10.641,10.641,0,0,0,1.12-.44A2.207,2.207,0,0,1,26.114,11.74Zm-3.46-5.58a2.179,2.179,0,0,0-1.64.64,3.058,3.058,0,0,0-.72,1.84h4.52a2.809,2.809,0,0,0-.6-1.84A1.964,1.964,0,0,0,22.654,6.16Z" fill="#0056d6"/>
  <path id="Logo-5" data-name="Logo" d="M36.739,11.74a.646.646,0,0,1,.54.26,1.048,1.048,0,0,1,.22.7,1.213,1.213,0,0,1-.74,1.04,7.008,7.008,0,0,1-1.54.62,6.619,6.619,0,0,1-1.64.22,5.1,5.1,0,0,1-3.74-1.36,4.985,4.985,0,0,1-1.38-3.72,5.707,5.707,0,0,1,.6-2.66,4.383,4.383,0,0,1,1.68-1.8,4.84,4.84,0,0,1,2.48-.64,4.432,4.432,0,0,1,2.3.58,3.933,3.933,0,0,1,1.52,1.64,5.442,5.442,0,0,1,.54,2.5q0,.86-.76.86h-5.9a3.192,3.192,0,0,0,.78,2.04,2.65,2.65,0,0,0,1.92.64,3.546,3.546,0,0,0,1.12-.16,10.641,10.641,0,0,0,1.12-.44A2.207,2.207,0,0,1,36.739,11.74Zm-3.46-5.58a2.179,2.179,0,0,0-1.64.64,3.058,3.058,0,0,0-.72,1.84h4.52a2.809,2.809,0,0,0-.6-1.84A1.964,1.964,0,0,0,33.279,6.16Z" fill="#0056d6"/>
  <path id="Logo-6" data-name="Logo" d="M40.7,14.42a1.176,1.176,0,0,1-.9-.32,1.191,1.191,0,0,1-.24-.9L40.5,1.48a1.339,1.339,0,0,1,.4-.92,1.386,1.386,0,0,1,.96-.34,1.166,1.166,0,0,1,.92.36,1.164,1.164,0,0,1,.28.92L42.2,12.3h5.6a1.242,1.242,0,0,1,.84.26.9.9,0,0,1,.3.72q0,1.14-1.28,1.14Z" fill="#0056d6"/>
  <path id="Logo-7" data-name="Logo" d="M55.138,4.4a4.25,4.25,0,0,1,2.96.9,3.515,3.515,0,0,1,.98,2.72q0,.38-.02.58l-.38,4.78a1.208,1.208,0,0,1-.38.86,1.236,1.236,0,0,1-.88.3,1.136,1.136,0,0,1-.84-.32,1.115,1.115,0,0,1-.26-.86l.02-.38a2.9,2.9,0,0,1-1.12,1.18,3.194,3.194,0,0,1-1.64.42,4.1,4.1,0,0,1-1.74-.36,3.109,3.109,0,0,1-1.2-1.02,2.609,2.609,0,0,1-.44-1.48,2.661,2.661,0,0,1,.56-1.78,3.367,3.367,0,0,1,1.84-.98,14.152,14.152,0,0,1,3.36-.32h.72l.02-.38a1.847,1.847,0,0,0-.38-1.48,1.945,1.945,0,0,0-1.46-.48,6.056,6.056,0,0,0-2.7.78,1.192,1.192,0,0,1-.5.12.814.814,0,0,1-.6-.24.883.883,0,0,1-.24-.62.985.985,0,0,1,.16-.52,1.267,1.267,0,0,1,.46-.46,6.386,6.386,0,0,1,1.7-.7A7.766,7.766,0,0,1,55.138,4.4Zm-.92,8.38a2.114,2.114,0,0,0,1.58-.66,2.679,2.679,0,0,0,.74-1.72l.04-.44h-.56A11.407,11.407,0,0,0,54,10.1a1.9,1.9,0,0,0-1.04.48,2.207,2.207,0,0,0-.32.88l.42.96A3.211,3.211,0,0,0,54.217,12.78Z" fill="#0056d6"/>
  <path id="Logo-8" data-name="Logo" d="M67.458,4.4a3.23,3.23,0,0,1,2.48.9,3.607,3.607,0,0,1,.86,2.62q0,.38-.02.58l-.4,4.84a1.243,1.243,0,0,1-.4.88,1.333,1.333,0,0,1-.92.32,1.217,1.217,0,0,1-.9-.32,1.074,1.074,0,0,1-.28-.88l.4-4.74q.16-2.22-1.76-2.22a2.245,2.245,0,0,0-1.72.66,2.966,2.966,0,0,0-.72,1.84l-.38,4.46a1.243,1.243,0,0,1-.4.88,1.333,1.333,0,0,1-.92.32,1.217,1.217,0,0,1-.9-.32,1.171,1.171,0,0,1-.28-.88l.64-7.76a1.043,1.043,0,0,1,.4-.82,1.41,1.41,0,0,1,.94-.32,1.136,1.136,0,0,1,.84.3.915.915,0,0,1,.24.8l-.02.38a3.347,3.347,0,0,1,1.34-1.12A4.318,4.318,0,0,1,67.458,4.4Z" fill="#0056d6"/>
  <path id="Logo-9" data-name="Logo" d="M77.6,14.58A5.577,5.577,0,0,1,75,14a4.343,4.343,0,0,1-1.72-1.68,5.063,5.063,0,0,1-.6-2.5,6.073,6.073,0,0,1,.64-2.86,4.442,4.442,0,0,1,1.84-1.9,5.762,5.762,0,0,1,2.82-.66,6.526,6.526,0,0,1,1.8.24,4.257,4.257,0,0,1,1.4.6.967.967,0,0,1,.44.88,1.2,1.2,0,0,1-.24.74.686.686,0,0,1-.58.3,1,1,0,0,1-.44-.12,4.211,4.211,0,0,0-2.28-.68,2.542,2.542,0,0,0-2.08.9,3.862,3.862,0,0,0-.74,2.52,3.1,3.1,0,0,0,.66,2.1,2.426,2.426,0,0,0,1.88.74,3.594,3.594,0,0,0,1.1-.16,5.007,5.007,0,0,0,1.06-.5,1.024,1.024,0,0,1,.48-.14.646.646,0,0,1,.54.26.987.987,0,0,1,.2.62,1.232,1.232,0,0,1-.12.52,1.191,1.191,0,0,1-.36.42,4.567,4.567,0,0,1-1.4.68A5.719,5.719,0,0,1,77.6,14.58Z" fill="#0056d6"/>
  <path id="Logo-10" data-name="Logo" d="M83.843,14.54a1.281,1.281,0,0,1-.88-.3,1.039,1.039,0,0,1-.3-.9L83.3,5.6a1.1,1.1,0,0,1,.42-.86,1.439,1.439,0,0,1,.92-.3,1.207,1.207,0,0,1,.86.3.958.958,0,0,1,.3.86l-.64,7.74a1.184,1.184,0,0,1-.42.9A1.409,1.409,0,0,1,83.843,14.54Zm1.04-11.88A1.554,1.554,0,0,1,83.8,2.3a1.291,1.291,0,0,1-.4-.98,1.228,1.228,0,0,1,.4-.96A1.554,1.554,0,0,1,84.883,0a1.525,1.525,0,0,1,1.06.36,1.2,1.2,0,0,1,.42.96,1.291,1.291,0,0,1-.4.98A1.554,1.554,0,0,1,84.883,2.66Z" fill="#0056d6"/>
  <path id="Logo-11" data-name="Logo" d="M94,4.4a3.23,3.23,0,0,1,2.48.9,3.607,3.607,0,0,1,.86,2.62q0,.38-.02.58l-.4,4.84a1.243,1.243,0,0,1-.4.88,1.333,1.333,0,0,1-.92.32,1.217,1.217,0,0,1-.9-.32,1.074,1.074,0,0,1-.28-.88l.4-4.74q.16-2.22-1.76-2.22a2.245,2.245,0,0,0-1.72.66,2.966,2.966,0,0,0-.72,1.84l-.38,4.46a1.243,1.243,0,0,1-.4.88,1.333,1.333,0,0,1-.92.32,1.217,1.217,0,0,1-.9-.32,1.171,1.171,0,0,1-.28-.88l.64-7.76a1.043,1.043,0,0,1,.4-.82,1.41,1.41,0,0,1,.94-.32,1.136,1.136,0,0,1,.84.3.915.915,0,0,1,.24.8l-.02.38a3.347,3.347,0,0,1,1.34-1.12A4.318,4.318,0,0,1,94,4.4Z" fill="#0056d6"/>
  <path id="Logo-12" data-name="Logo" d="M100.66,14.54a1.437,1.437,0,0,1-1.06-.42,1.5,1.5,0,0,1-.42-1.08,1.437,1.437,0,0,1,.42-1.06,1.5,1.5,0,0,1,2.12,0,1.437,1.437,0,0,1,.42,1.06,1.5,1.5,0,0,1-.42,1.08A1.437,1.437,0,0,1,100.66,14.54Z" fill="#0056d6"/>
  <path id="Logo-13" data-name="Logo" d="M105.581,14.54a1.281,1.281,0,0,1-.88-.3,1.039,1.039,0,0,1-.3-.9l.64-7.74a1.1,1.1,0,0,1,.42-.86,1.439,1.439,0,0,1,.92-.3,1.207,1.207,0,0,1,.86.3.958.958,0,0,1,.3.86l-.64,7.74a1.184,1.184,0,0,1-.42.9A1.409,1.409,0,0,1,105.581,14.54Zm1.04-11.88a1.554,1.554,0,0,1-1.08-.36,1.291,1.291,0,0,1-.4-.98,1.228,1.228,0,0,1,.4-.96,1.554,1.554,0,0,1,1.08-.36,1.525,1.525,0,0,1,1.06.36,1.2,1.2,0,0,1,.42.96,1.291,1.291,0,0,1-.4.98A1.554,1.554,0,0,1,106.621,2.66Z" fill="#0056d6"/>
  <path id="Logo-14" data-name="Logo" d="M114.18,14.58a5.622,5.622,0,0,1-2.62-.58,4.209,4.209,0,0,1-1.7-1.68,5.22,5.22,0,0,1-.6-2.54,6.235,6.235,0,0,1,.62-2.86,4.442,4.442,0,0,1,1.78-1.86A5.85,5.85,0,0,1,116.94,5a4.023,4.023,0,0,1,1.72,1.68,5.105,5.105,0,0,1,.6,2.52,6.073,6.073,0,0,1-.64,2.86,4.409,4.409,0,0,1-1.78,1.88A5.344,5.344,0,0,1,114.18,14.58Zm0-1.94a2.154,2.154,0,0,0,1.92-.96,4.5,4.5,0,0,0,.66-2.56,3.053,3.053,0,0,0-.62-2.08,2.477,2.477,0,0,0-3.72.26,4.4,4.4,0,0,0-.66,2.54Q111.76,12.64,114.18,12.64Z" fill="#0056d6"/>
</svg>
